<svg data-v-0dd9719b="" version="1.0" xmlns="http://www.w3.org/2000/svg" xmlns:xlink="http://www.w3.org/1999/xlink" width="100%" height="100%" viewBox="0 0 340.000000 250.000000" preserveAspectRatio="xMidYMid meet" color-interpolation-filters="sRGB" style="margin: auto;"> <rect data-v-0dd9719b="" x="0" y="0" width="100%" height="100%" fill="#ffffff" fill-opacity="1" class="background"></rect> <rect data-v-0dd9719b="" x="0" y="0" width="100%" height="100%" fill="url(#watermark)" fill-opacity="1" class="watermarklayer"></rect> <g data-v-0dd9719b="" fill="#ee6a46" class="icon-text-wrapper icon-svg-group iconsvg" transform="translate(54.22000531530921,95)"><g fill="#ee6a46" class="iconsvg-imagesvg icon_container" transform="translate(0,0)"><rect fill="#ee6a46" fill-opacity="0" stroke-width="2" x="0" y="0" width="60" height="60" class="image-rect"></rect> <svg viewBox="0 0 60 59.997600095996155" x="0" y="0" width="60" height="60" class="image-svg-svg bn" style="overflow: visible;"><g hollow-target="iconBnOutline"><g mask="url(#077b3951-e93a-40b2-9078-fe599b2e8be8)"><svg fill="#000000" xmlns="http://www.w3.org/2000/svg" xmlns:xlink="http://www.w3.org/1999/xlink" version="1.1" x="0" y="0" viewBox="0.54496 0.546 48.91108 48.909" enable-background="new 0 0 50 50" xml:space="preserve" style="overflow: visible;" width="60" height="59.997600095996155" filtersec="colorsb5422601579" filter="url(#k2o77zu0hcbioR2zEyd53)"><g transform="scale(1, 1) skewX(0)"><path d="M25.117,49.455c-1.077,0-2.089-0.413-2.85-1.163L1.748,28.05c-0.78-0.77-1.208-1.803-1.203-2.908  c0.005-1.097,0.435-2.135,1.212-2.923l20.145-20.42c0.797-0.808,1.855-1.253,2.98-1.253c1.077,0,2.089,0.414,2.851,1.164  l20.52,20.242c0.781,0.77,1.208,1.803,1.203,2.908c-0.005,1.096-0.436,2.134-1.213,2.922l-20.145,20.42  C27.301,49.01,26.242,49.455,25.117,49.455z M24.882,2.545c-0.585,0-1.139,0.233-1.557,0.657L3.181,23.623  c-0.407,0.413-0.633,0.956-0.636,1.527c-0.002,0.563,0.213,1.087,0.607,1.476l20.52,20.242c0.795,0.784,2.192,0.75,3.002-0.07  l20.145-20.42c0.408-0.414,0.635-0.956,0.637-1.527c0.003-0.563-0.213-1.086-0.607-1.476L26.328,3.133  C25.943,2.754,25.43,2.545,24.882,2.545z"></path></g><defs><filter id="k2o77zu0hcbioR2zEyd53"><feColorMatrix type="matrix" values="0 0 0 0 0.9296875  0 0 0 0 0.4140625  0 0 0 0 0.2734375  0 0 0 1 0"></feColorMatrix></filter></defs></svg></g> <g><svg xmlns="http://www.w3.org/2000/svg" viewBox="0 0 75.25 75.22" width="40.1" height="40.0984" x="9.95" y="9.949600047998079" class="image-svg-icon"><g><g><path d="M37.63 75.22L20.86 58.48l6.33-6.33 10.44 10.43 31.29-31.3 6.33 6.33z" fill="#ee6a46"></path><path fill="#2b2c30" d="M31.29 48.04l27.2-27.18 6.32 6.32-27.18 27.2-6.34-6.34z"></path><path d="M37.63 0l16.76 16.76-6.34 6.32-10.42-10.42L6.34 43.94 0 37.62z" fill="#ee6a46"></path><path fill="#2b2c30" d="M43.95 27.18l-27.19 27.2-6.32-6.34 27.19-27.18 6.32 6.32z"></path></g></g></svg></g></g><mask id="077b3951-e93a-40b2-9078-fe599b2e8be8"><g fill="white"><svg xmlns="http://www.w3.org/2000/svg" xmlns:xlink="http://www.w3.org/1999/xlink" version="1.1" x="0" y="0" viewBox="0.54496 0.546 48.91108 48.909" enable-background="new 0 0 50 50" xml:space="preserve" style="overflow: visible;" width="60" height="59.997600095996155" filtersec="colorsb5422601579"><g transform="scale(1, 1) skewX(0)"><path d="M25.117,49.455c-1.077,0-2.089-0.413-2.85-1.163L1.748,28.05c-0.78-0.77-1.208-1.803-1.203-2.908  c0.005-1.097,0.435-2.135,1.212-2.923l20.145-20.42c0.797-0.808,1.855-1.253,2.98-1.253c1.077,0,2.089,0.414,2.851,1.164  l20.52,20.242c0.781,0.77,1.208,1.803,1.203,2.908c-0.005,1.096-0.436,2.134-1.213,2.922l-20.145,20.42  C27.301,49.01,26.242,49.455,25.117,49.455z M24.882,2.545c-0.585,0-1.139,0.233-1.557,0.657L3.181,23.623  c-0.407,0.413-0.633,0.956-0.636,1.527c-0.002,0.563,0.213,1.087,0.607,1.476l20.52,20.242c0.795,0.784,2.192,0.75,3.002-0.07  l20.145-20.42c0.408-0.414,0.635-0.956,0.637-1.527c0.003-0.563-0.213-1.086-0.607-1.476L26.328,3.133  C25.943,2.754,25.43,2.545,24.882,2.545z"></path></g><defs></defs></svg></g> <g fill="black" filter="url(#03e00303-1061-4bc4-9a5b-4df60f405b29)"><svg xmlns="http://www.w3.org/2000/svg" viewBox="0 0 75.25 75.22" width="40.1" height="40.0984" x="9.95" y="9.949600047998079" class="image-svg-icon"><g><g><path d="M37.63 75.22L20.86 58.48l6.33-6.33 10.44 10.43 31.29-31.3 6.33 6.33z"></path><path d="M31.29 48.04l27.2-27.18 6.32 6.32-27.18 27.2-6.34-6.34z"></path><path d="M37.63 0l16.76 16.76-6.34 6.32-10.42-10.42L6.34 43.94 0 37.62z"></path><path d="M43.95 27.18l-27.19 27.2-6.32-6.34 27.19-27.18 6.32 6.32z"></path></g></g></svg></g><defs><filter id="03e00303-1061-4bc4-9a5b-4df60f405b29"><feGaussianBlur in="SourceGraphic" stdDeviation="1.26"></feGaussianBlur><feComponentTransfer><feFuncA type="discrete" tableValues="0 1 1 1 1 1 1 1 1 1 1 1 1 1 0"></feFuncA></feComponentTransfer></filter></defs></mask></svg> <!----></g> <g transform="translate(67.00000381469727,2.273752212524414)"><g data-gra="path-name" fill-rule="" class="tp-name iconsvg-namesvg" transform="translate(0,0)"><g transform="scale(1)"><g><path d="M11.78-23.61L11.78-25.93 2.49-25.93 2.49-31.05 11.78-31.05 11.78-34.23 17.24-34.01 17.24-31.05 25.24-31.05 25.24-34.23 30.7-34.01 30.7-31.05 39.86-31.05 39.86-25.93 30.7-25.93 30.7-23.48 25.24-23.48 25.24-25.93 17.24-25.93 17.24-23.61 11.78-23.61ZM41.07-8.82L38.49-4Q37.28-5.16 35.71-6.49 34.14-7.83 32.59-9.07L32.59-9.07Q32.42-6.84 32.29-4.97 32.16-3.1 32.08-2.02L32.08-2.02Q31.95-0.34 31.5 0.73 31.05 1.81 30.16 2.45 29.28 3.1 27.97 3.42 26.66 3.74 24.85 3.87L24.85 3.87 21.16 4.13 19.61-0.9 23.35-1.16Q24.42-1.25 25.09-1.35 25.76-1.46 26.14-1.76 26.53-2.06 26.7-2.64 26.88-3.23 26.96-4.21L26.96-4.21Q27-4.69 27.09-5.59 27.18-6.49 27.26-7.63 27.35-8.77 27.43-9.98 27.52-11.18 27.58-12.28 27.65-13.37 27.71-14.21 27.78-15.05 27.78-15.39L27.78-15.39 20.43-15.39Q20.12-11.4 19.26-8.41 18.4-5.42 16.77-3.01 15.14-0.6 12.66 1.46 10.19 3.53 6.71 5.63L6.71 5.63 3.1 1.25Q6.24-0.47 8.43-2.17 10.62-3.87 12.02-5.78 13.42-7.7 14.15-10.02 14.88-12.34 15.14-15.39L15.14-15.39 4.77-15.39 4.77-20.43 15.39-20.43Q15.44-21.2 15.44-21.87 15.44-22.53 15.44-22.96L15.44-22.96 20.73-22.75Q20.73-22.19 20.7-21.61 20.68-21.03 20.64-20.43L20.64-20.43 33.28-20.43Q33.24-19.57 33.15-18.06 33.07-16.55 32.98-14.71L32.98-14.71Q33.88-14.15 35.02-13.35 36.16-12.56 37.28-11.72 38.4-10.88 39.41-10.11 40.42-9.33 41.07-8.82L41.07-8.82ZM9.16-15.18L13.2-11.87Q11.57-9.55 9.72-7.31 7.87-5.07 6.15-3.61L6.15-3.61 2.28-6.88Q3.1-7.61 4.02-8.6 4.95-9.59 5.85-10.69 6.75-11.78 7.59-12.94 8.43-14.1 9.16-15.18L9.16-15.18ZM74.73-33.8L79.89-33.58 79.89 3.48 74.73 3.48 74.73-12.81 71.72-11.09Q71.04-12.99 70.15-15.2 69.27-17.42 68.33-19.48L68.33-19.48 68.33 2.71 63.21 2.71 63.21-12.6 60.46-11.01Q59.86-12.81 59.04-14.81 58.22-16.81 57.36-18.75L57.36-18.75Q57.32-14.15 56.95-10.77 56.59-7.4 55.69-4.71 54.78-2.02 53.26 0.24 51.73 2.49 49.41 4.86L49.41 4.86 44.63 1.55Q46.96-0.73 48.44-2.75 49.92-4.77 50.76-7.16 51.6-9.55 51.92-12.62 52.25-15.7 52.25-20.12L52.25-20.12 52.25-33.8 57.36-33.58 57.36-23.31 59.81-24.55Q60.63-23.05 61.53-21.09 62.44-19.14 63.21-17.16L63.21-17.16 63.21-32.77 68.33-32.55 68.33-23.18 71.04-24.55Q71.9-22.92 72.89-20.81 73.87-18.71 74.73-16.55L74.73-16.55 74.73-33.8ZM47.43-24.55L51.94-23.48Q51.69-22.15 51.26-20.4 50.83-18.66 50.31-16.86 49.79-15.05 49.24-13.33 48.68-11.61 48.2-10.36L48.2-10.36 43.86-12.04Q44.42-13.37 44.96-14.94 45.49-16.51 45.97-18.15 46.44-19.78 46.83-21.44 47.21-23.09 47.43-24.55L47.43-24.55ZM120.87-2.24L124.66-0.95Q124.57-0.26 124.49 0.32 124.4 0.9 124.23 1.72L124.23 1.72Q124.06 2.41 123.75 2.86 123.45 3.31 122.89 3.61 122.34 3.91 121.5 4.06 120.66 4.21 119.41 4.3L119.41 4.3Q115.2 4.64 111.11 4.3L111.11 4.3Q109.87 4.21 108.98 4 108.1 3.78 107.56 3.35 107.03 2.92 106.77 2.24 106.51 1.55 106.51 0.47L106.51 0.47 106.51-0.43Q104.58 1.08 101.7 2.37 98.81 3.66 94.77 4.9L94.77 4.9 93.1 0.77Q97.14-0.26 99.87-1.48 102.6-2.71 104.19-4.21L104.19-4.21 95.98-4.21 95.98-15.05 104.53-15.05 105.14-17.07 108.88-16.99 107.67-18.75 106.64-17.16Q105.26-18.19 104.06-18.92L104.06-18.92 104.06-16.25 99.89-16.25 99.89-18.79Q98.21-17.11 96.06-15.91L96.06-15.91 94.34-18.83 94.34-17.33Q94.34-13.5 94.08-10.58 93.83-7.65 93.29-5.14 92.75-2.62 91.87-0.3 90.99 2.02 89.74 4.56L89.74 4.56 85.31 2.24Q86.34 0.09 87.16-1.87 87.98-3.83 88.52-6.02 89.05-8.21 89.33-10.88 89.61-13.55 89.61-17.16L89.61-17.16 89.61-32.08 104.1-32.08 103.46-34.62 109.13-34.87 109.74-32.08 123.28-32.08 123.28-27.82 94.34-27.82 94.34-19.52Q95.46-20.04 96.41-20.62 97.35-21.2 98.21-21.93L98.21-21.93 95.46-21.93 95.46-25.54 99.89-25.54 99.89-27.43 104.06-27.22 104.06-25.54 108.19-25.54 108.19-21.93 105.26-21.93Q106.08-21.5 106.88-21.05 107.67-20.6 108.36-20.12L108.36-20.12Q109.82-20.94 111.11-21.93L111.11-21.93 109.18-21.93 109.18-25.54 112.62-25.54 112.62-27.43 116.79-27.22 116.79-25.54 122.64-25.54 122.64-21.93 118.9-21.93Q120.01-21.16 121.3-20.49 122.59-19.82 124.18-19.22L124.18-19.22 122.21-15.61Q119.07-17.24 116.79-19.26L116.79-19.26 116.79-16.25 112.62-16.25 112.62-18.92Q111.11-17.63 109.61-16.68L109.61-16.68 109.09-15.05 120.92-15.05 120.92-4.21 116.23-4.21 116.79-3.87Q116.36-3.27 115.76-2.77 115.15-2.28 114.55-1.81L114.55-1.81Q115.07-1.85 115.71-1.87 116.36-1.89 116.96-1.98L116.96-1.98Q116.83-2.19 116.7-2.34 116.57-2.49 116.44-2.67L116.44-2.67 118.55-3.87Q119.07-3.14 119.6-2.21 120.14-1.29 120.57-0.56L120.57-0.56Q120.66-0.95 120.72-1.35 120.79-1.76 120.87-2.24L120.87-2.24ZM104.06-21.93L104.06-20.51 104.92-21.93 104.06-21.93ZM106.38-12.04L100.45-12.04 100.45-10.97 106.38-10.97 106.38-12.04ZM116.49-10.97L116.49-12.04 110.68-12.04 110.68-10.97 116.49-10.97ZM100.45-8.3L100.45-7.18 106.12-7.18Q106.21-7.44 106.25-7.72 106.3-8 106.34-8.3L106.34-8.3 100.45-8.3ZM110.55-7.18L116.49-7.18 116.49-8.3 110.68-8.3 110.55-7.18ZM118.16 1.25L118.16 1.25Q119.28 1.12 119.78 0.92 120.27 0.73 120.49-0.13L120.49-0.13Q120.49-0.22 120.53-0.26L120.53-0.26 118.68 0.69Q118.59 0.6 118.53 0.47 118.47 0.34 118.38 0.22L118.38 0.22Q117.86 0.22 117.13 0.26 116.4 0.3 115.65 0.34 114.9 0.39 114.17 0.43 113.43 0.47 112.88 0.52L112.88 0.52Q112.4 0.56 112.04 0.6 111.67 0.65 111.46 0.69L111.46 0.69 110.85-1.81Q111.2-1.89 111.46-2.06 111.71-2.24 111.93-2.45L111.93-2.45Q112.14-2.67 112.55-3.14 112.96-3.61 113.39-4.21L113.39-4.21 109.69-4.21Q109.61-4 109.48-3.78 109.35-3.57 109.22-3.35L109.22-3.35 110.73-3.31 110.73-0.86Q110.73 0 110.98 0.58 111.24 1.16 112.23 1.25L112.23 1.25Q115.2 1.55 118.16 1.25ZM166.84-26.66L148.48-26.66Q146.59-22.49 143.96-18.71L143.96-18.71 163.4-18.71 163.4 3.05 136.22 3.05 136.22-9.59Q133.77-7.27 130.94-4.95L130.94-4.95 128.05-10.88Q130.25-12.47 132.31-14.32 134.38-16.17 136.18-18.17 137.99-20.17 139.49-22.32 141-24.47 142.12-26.66L142.12-26.66 130.76-26.66 130.76-31.91 166.84-31.91 166.84-26.66ZM158.07-2.37L158.07-13.24 141.56-13.24 141.56-2.37 158.07-2.37Z" transform="translate(-2.2799999713897705, 34.869998931884766)"></path></g> <!----> <!----> <!----> <!----> <!----> <!----> <!----></g></g> <g data-gra="path-slogan" fill-rule="" class="tp-slogan iconsvg-slogansvg" fill="#2b2c30" transform="translate(5,47.5)"><rect x="0" height="1" y="3.9750003814697266" width="4.1341705322265625"></rect> <rect height="1" y="3.9750003814697266" width="4.1341705322265625" x="150.4258270263672"></rect> <g transform="translate(7.1341705322265625,0)"><g transform="scale(1)"><path d="M7.17-6.09L7.17-6.09L6.09-6.09Q6-7.73 3.94-7.83L3.94-7.83Q2.02-7.78 2.02-6.33L2.02-6.33Q2.02-5.39 3.05-5.25L3.05-5.25L5.48-4.69Q7.41-4.22 7.41-2.34L7.41-2.34Q7.36 0.05 4.03 0.14L4.03 0.14Q2.20 0.14 1.45-0.61L1.45-0.61Q0.52-1.31 0.56-2.77L0.56-2.77L1.69-2.77Q1.73-0.80 4.03-0.75L4.03-0.75Q6.28-0.80 6.33-2.20L6.33-2.20Q6.52-3.38 4.45-3.75L4.45-3.75L2.67-4.13Q0.84-4.64 0.84-6.19L0.84-6.19Q0.98-8.72 3.84-8.81L3.84-8.81Q7.08-8.81 7.17-6.09ZM14.77-3.19L14.77-8.58L15.94-8.58L15.94-3.05Q15.80 0.05 12.42 0.14L12.42 0.14Q9.28 0.05 9.14-2.86L9.14-2.86L9.14-8.58L10.31-8.58L10.31-3.19Q10.36-0.84 12.47-0.80L12.47-0.80Q14.77-0.84 14.77-3.19L14.77-3.19ZM18.80-1.03L24.10-1.03L24.10 0L17.35 0L17.35-0.94L22.60-7.59L17.72-7.59L17.72-8.58L24.10-8.58L24.10-7.59L18.80-1.03ZM26.63-5.06L31.13-5.06L31.13-8.58L32.30-8.58L32.30 0L31.13 0L31.13-3.98L26.63-3.98L26.63 0L25.46 0L25.46-8.58L26.63-8.58L26.63-5.06ZM41.12-4.27L41.12-4.27Q40.93-7.64 38.12-7.83L38.12-7.83Q35.26-7.69 35.12-4.27L35.12-4.27Q35.26-0.94 38.12-0.80L38.12-0.80Q40.93-0.98 41.12-4.27ZM42.29-4.27L42.29-4.27Q42.01 0 38.12 0.14L38.12 0.14Q34.18 0 33.90-4.27L33.90-4.27Q34.13-8.72 38.12-8.81L38.12-8.81Q42.01-8.67 42.29-4.27ZM49.56-3.19L49.56-8.58L50.73-8.58L50.73-3.05Q50.59 0.05 47.21 0.14L47.21 0.14Q44.07 0.05 43.93-2.86L43.93-2.86L43.93-8.58L45.10-8.58L45.10-3.19Q45.15-0.84 47.26-0.80L47.26-0.80Q49.56-0.84 49.56-3.19L49.56-3.19ZM64.56-8.58L64.56 0L63.44 0L63.44-5.06Q63.44-5.77 63.44-7.22L63.44-7.22L61.00 0L59.83 0L57.44-7.22L57.39-7.22Q57.39-6.70 57.44-5.67L57.44-5.67Q57.44-5.16 57.44-5.06L57.44-5.06L57.44 0L56.26 0L56.26-8.58L57.95-8.58L60.44-1.31L62.87-8.58L64.56-8.58ZM72.16 0L71.31-2.48L67.84-2.48L66.95 0L65.78 0L69.02-8.58L70.33-8.58L73.42 0L72.16 0ZM69.58-7.31L68.22-3.52L70.89-3.52L69.63-7.31L69.58-7.31ZM81.11-3.61L78.49-3.61L78.49-4.59L82.24-4.59L82.24 0L81.49 0L81.21-1.08Q80.22 0.09 78.39 0.14L78.39 0.14Q76.66 0.14 75.72-0.75L75.72-0.75Q74.32-2.06 74.36-4.36L74.36-4.36Q74.69-8.63 78.44-8.81L78.44-8.81Q81.63-8.63 82.10-6L82.10-6L80.97-6Q80.50-7.78 78.39-7.83L78.39-7.83Q75.72-7.64 75.58-4.31L75.58-4.31Q75.58-0.75 78.44-0.75L78.44-0.75Q79.47-0.75 80.22-1.31L80.22-1.31Q81.16-2.06 81.11-3.61L81.11-3.61ZM84.44-8.58L85.61-8.58L85.61 0L84.44 0L84.44-8.58ZM94.99-6.05L94.99-6.05L93.87-6.05Q93.44-7.78 91.48-7.83L91.48-7.83Q88.76-7.69 88.66-4.36L88.66-4.36Q88.66-0.80 91.52-0.80L91.52-0.80Q93.49-0.84 93.96-3.19L93.96-3.19L95.09-3.19Q94.57 0.05 91.29 0.14L91.29 0.14Q87.54 0 87.44-4.31L87.44-4.31Q87.63-8.63 91.48-8.81L91.48-8.81Q94.52-8.72 94.99-6.05ZM106.53-6.09L106.53-6.09L105.45-6.09Q105.36-7.73 103.29-7.83L103.29-7.83Q101.37-7.78 101.37-6.33L101.37-6.33Q101.37-5.39 102.40-5.25L102.40-5.25L104.84-4.69Q106.76-4.22 106.76-2.34L106.76-2.34Q106.71 0.05 103.39 0.14L103.39 0.14Q101.56 0.14 100.81-0.61L100.81-0.61Q99.87-1.31 99.92-2.77L99.92-2.77L101.04-2.77Q101.09-0.80 103.39-0.75L103.39-0.75Q105.64-0.80 105.68-2.20L105.68-2.20Q105.87-3.38 103.81-3.75L103.81-3.75L102.03-4.13Q100.20-4.64 100.20-6.19L100.20-6.19Q100.34-8.72 103.20-8.81L103.20-8.81Q106.43-8.81 106.53-6.09ZM110.65-7.59L107.75-7.59L107.75-8.58L114.69-8.58L114.69-7.59L111.78-7.59L111.78 0L110.65 0L110.65-7.59ZM122.75-4.27L122.75-4.27Q122.56-7.64 119.75-7.83L119.75-7.83Q116.89-7.69 116.75-4.27L116.75-4.27Q116.89-0.94 119.75-0.80L119.75-0.80Q122.56-0.98 122.75-4.27ZM123.92-4.27L123.92-4.27Q123.64 0 119.75 0.14L119.75 0.14Q115.81 0 115.53-4.27L115.53-4.27Q115.77-8.72 119.75-8.81L119.75-8.81Q123.64-8.67 123.92-4.27ZM126.92-8.58L131.24-1.64L131.24-8.58L132.36-8.58L132.36 0L131.05 0L126.69-6.94L126.64-6.94L126.64 0L125.52 0L125.52-8.58L126.92-8.58ZM135.69-1.03L140.85-1.03L140.85 0L134.52 0L134.52-8.58L140.75-8.58L140.75-7.59L135.69-7.59L135.69-4.92L140.38-4.92L140.38-3.89L135.69-3.89L135.69-1.03Z" transform="translate(-0.5602678571428572, 8.8125)"></path></g></g></g></g></g><defs v-gra="od"></defs></svg>